<!DOCTYPE svg PUBLIC "-//W3C//DTD SVG 1.1//EN" "http://www.w3.org/Graphics/SVG/1.1/DTD/svg11.dtd">
<!-- Uploaded to: SVG Repo, www.svgrepo.com, Transformed by: SVG Repo Mixer Tools -->
<svg width="800px" height="800px" viewBox="0 0 24 24" fill="none" xmlns="http://www.w3.org/2000/svg">
<g id="SVGRepo_bgCarrier" stroke-width="0"/>
<g id="SVGRepo_tracerCarrier" stroke-linecap="round" stroke-linejoin="round"/>
<g id="SVGRepo_iconCarrier"> <path d="M13.8476 13.317L9.50515 18.2798C8.70833 19.1905 7.29167 19.1905 6.49485 18.2798L2.15238 13.317C1.49259 12.563 1.49259 11.437 2.15238 10.683L6.49485 5.72018C7.29167 4.80952 8.70833 4.80952 9.50515 5.72017L13.8476 10.683C14.5074 11.437 14.5074 12.563 13.8476 13.317Z" stroke="#ffffff" stroke-width="1.5" stroke-linecap="round" stroke-linejoin="round" style="--darkreader-inline-stroke: var(--darkreader-text-ffffff, #e8e6e3);" data-darkreader-inline-stroke=""/> <path d="M13 19L17.8844 13.3016C18.5263 12.5526 18.5263 11.4474 17.8844 10.6984L13 5" stroke="#ffffff" stroke-width="1.5" stroke-linecap="round" stroke-linejoin="round" style="--darkreader-inline-stroke: var(--darkreader-text-ffffff, #e8e6e3);" data-darkreader-inline-stroke=""/> <path d="M17 19L21.8844 13.3016C22.5263 12.5526 22.5263 11.4474 21.8844 10.6984L17 5" stroke="#ffffff" stroke-width="1.5" stroke-linecap="round" stroke-linejoin="round" style="--darkreader-inline-stroke: var(--darkreader-text-ffffff, #e8e6e3);" data-darkreader-inline-stroke=""/> </g>
</svg>