<!DOCTYPE svg PUBLIC "-//W3C//DTD SVG 1.1//EN" "http://www.w3.org/Graphics/SVG/1.1/DTD/svg11.dtd">
<!-- Uploaded to: SVG Repo, www.svgrepo.com, Transformed by: SVG Repo Mixer Tools -->
<svg fill="#ffffff" height="800px" width="800px" version="1.1" id="Layer_1" xmlns="http://www.w3.org/2000/svg" xmlns:xlink="http://www.w3.org/1999/xlink" viewBox="0 0 512 512" xml:space="preserve">
<g id="SVGRepo_bgCarrier" stroke-width="0"/>
<g id="SVGRepo_tracerCarrier" stroke-linecap="round" stroke-linejoin="round"/>
<g id="SVGRepo_iconCarrier"> <g> <g> <path d="M491.564,162.774c4.762-6.828,13.088-20.543,17.51-38.282c5.895-23.654,5.762-59.008-28.351-93.102 C446.614-2.7,411.245-2.834,387.581,3.056c-17.755,4.419-31.478,12.747-38.308,17.504L333.021,4.316 c-3.259-3.258-8.543-3.259-11.804,0L259.19,66.309c-1.566,1.565-2.447,3.689-2.447,5.905c0,2.214,0.88,4.339,2.447,5.905 l15.63,15.622l-90.581,90.531l-90.585,90.536l-15.636-15.627c-3.26-3.259-8.543-3.259-11.804,0L4.187,321.176 c-1.567,1.565-2.447,3.689-2.447,5.905c0,2.216,0.88,4.339,2.447,5.905l16.249,16.24c-4.762,6.828-13.088,20.543-17.51,38.282 c-5.895,23.654-5.762,59.008,28.351,93.101c24.162,24.15,48.951,31.259,69.769,31.258c8.57,0,16.471-1.206,23.373-2.923 c17.753-4.419,31.477-12.747,38.306-17.504l16.254,16.244c1.63,1.63,3.766,2.443,5.902,2.443c2.136,0,4.271-0.814,5.902-2.443 l62.028-61.994c1.567-1.565,2.447-3.689,2.447-5.905c0-2.216-0.88-4.339-2.447-5.905l-15.63-15.621l60.427-60.395 c3.261-3.259,3.263-8.546,0.003-11.806c-3.259-3.263-8.546-3.264-11.806-0.003l-60.434,60.4l-15.635-15.627 c-3.26-3.259-8.543-3.259-11.804,0l-16.929,16.92l-76.831-76.791l16.922-16.913c1.567-1.565,2.447-3.689,2.447-5.905 s-0.88-4.339-2.447-5.905l-15.63-15.621l90.578-90.529l90.586-90.537l15.635,15.627c1.63,1.63,3.766,2.443,5.902,2.443 c2.135,0,4.272-0.814,5.902-2.443l15.636-15.627l24.157,24.144c3.26,3.259,8.547,3.257,11.806-0.003 c3.259-3.261,3.258-8.548-0.003-11.806l-24.151-24.138l2.782-2.781l3.501-3.5l76.831,76.79l-0.87,0.869l-5.412,5.41l-26.836-26.82 c-3.261-3.261-8.548-3.258-11.806,0.003c-3.259,3.261-3.258,8.548,0.003,11.806l26.829,26.814l-15.63,15.621 c-1.567,1.565-2.447,3.689-2.447,5.905s0.88,4.339,2.447,5.905l15.628,15.621l-90.578,90.532 c-3.262,3.259-3.263,8.546-0.003,11.806c1.631,1.632,3.768,2.447,5.905,2.447c2.136,0,4.271-0.814,5.902-2.443l90.585-90.537 l15.636,15.628c1.63,1.63,3.766,2.443,5.902,2.443s4.271-0.814,5.902-2.443l62.029-61.994c1.567-1.565,2.447-3.689,2.447-5.905 s-0.88-4.339-2.447-5.905L491.564,162.774z M72.117,276.89l31.265,31.248l-16.913,16.904c-0.002,0.002-0.006,0.004-0.009,0.008 l-18.092,18.083c-0.001,0.001-0.003,0.003-0.004,0.004l-15.199,15.191L21.899,327.08L72.117,276.89z M203.834,408.534 l31.265,31.248l-50.218,50.192l-31.265-31.247L203.834,408.534z M169.193,419.55l-6.283,6.279l-26.836-26.821 c-3.261-3.26-8.548-3.257-11.806,0.003c-3.259,3.261-3.258,8.548,0.003,11.806l26.83,26.814l-15.198,15.19 c-1.567,1.565-2.447,3.69-2.447,5.905c0,2.215,0.88,4.339,2.447,5.905l14.791,14.783c-6.253,4.064-16.964,10.003-30.31,13.324 c-28.343,7.056-54.351-0.997-77.305-23.941c-44.832-44.806-21.401-91.274-10.649-107.584l14.833,14.824 c1.63,1.63,3.766,2.443,5.902,2.443c2.136,0,4.271-0.814,5.902-2.443l15.203-15.195l24.157,24.144 c3.26,3.259,8.547,3.258,11.806-0.003s3.258-8.548-0.003-11.806l-24.152-24.138l6.283-6.279L169.193,419.55z M341.897,69.751 c-0.001,0.001-0.002,0.002-0.003,0.003l-10.383,10.378l-23.345,23.333l-31.265-31.249l50.218-50.19l31.265,31.248L341.897,69.751z M359.606,75.658l16.49-16.481c1.567-1.565,2.447-3.689,2.447-5.905c0-2.216-0.88-4.339-2.447-5.905L361.272,32.55 c16.326-10.749,62.818-34.158,107.647,10.648c44.84,44.816,21.393,91.292,10.651,107.586l-14.834-14.825 c-3.26-3.259-8.543-3.259-11.804,0l-16.496,16.488L359.606,75.658z M439.883,235.109l-31.265-31.248l15.625-15.617 c0.001-0.001,0.003-0.002,0.004-0.003l18.092-18.083l16.496-16.487l31.266,31.248L439.883,235.109z"/> </g> </g> </g>
</svg>