<svg version="1.2" xmlns="http://www.w3.org/2000/svg" viewBox="0 0 800 800" width="800" height="800">
	<title>unreal-engine-logo</title>
	<style>
		.s0 { fill: #ffffff } 
	</style>
	<path class="s0" d="m400 0c-219.2 0-396.6 179-396.6 400 0 221 177.5 400 396.6 400 219 0 396.6-179 396.6-400 0-221-177.6-400-396.6-400zm0 17.6c101.2 0 196.5 39.8 268.1 112 71.5 71.8 111.3 169.1 111.1 270.4 0 102.1-39.5 198.2-111.1 270.4-70.7 71.8-167.3 112.1-268.1 112-100.8 0.1-197.4-40.2-268.1-112-71.5-71.8-111.4-169.1-111.2-270.4 0-102.1 39.6-198.2 111.1-270.5 70.7-71.8 167.4-112.2 268.2-111.9zm-19.9 140.7c-64.6 17.4-124.4 50.6-204.1 142-79.6 91.4-64.5 166.9-64.5 166.9 0 0 22-52 74.8-106.7 25.2-25.9 43.8-34.6 56.7-34.6 11.4-0.7 21.1 8.6 21.1 20v185.6c0 18.4-11.9 22.4-22.8 22.1-9.2-0.1-17.8-3.3-17.8-3.3 54.3 78.8 184.2 89.9 184.2 89.9l57-60.9 1.3 1.2 52.3 44.5c95.5-56.8 141.6-162 141.6-162-42.6 45-69.8 55.6-85.9 55.6-14.3-0.1-19.9-8.5-19.9-8.5-0.8-3.9-2.1-60.4-2.6-116.9-0.6-58.5 0-117 2.8-117.2 16.6-31 69.2-93.5 69.2-93.5-98.3 19.4-151.8 83.9-151.8 83.9-15.9-12.5-48.2-10.5-48.2-10.5 15.1 8.4 30.2 32.6 30.2 52.6v197.4c0 0-33 29.1-58.3 29.1-15.1 0-24.4-8.2-29.5-15-1.9-2.6-3.6-5.5-4.9-8.6v-243.8c-3.5 2.6-7.8 4.1-12.1 4.2-5.5 0-11.1-2.7-14.9-10.7-2.8-6-4.7-14.9-4.7-28.1 0-44.9 50.8-74.7 50.8-74.7z"/>
</svg>